<svg width="32" height="32" viewBox="0 0 32 32" fill="none" xmlns="http://www.w3.org/2000/svg">
  <!-- Background circle with gradient -->
  <circle cx="16" cy="16" r="15" fill="url(#gradient)" stroke="#1e3a8a" stroke-width="2"/>
  
  <!-- Neural network nodes -->
  <circle cx="8" cy="10" r="2" fill="#fbbf24" opacity="0.9"/>
  <circle cx="16" cy="8" r="2" fill="#fbbf24" opacity="0.9"/>
  <circle cx="24" cy="10" r="2" fill="#fbbf24" opacity="0.9"/>
  <circle cx="10" cy="20" r="2" fill="#10b981" opacity="0.9"/>
  <circle cx="22" cy="20" r="2" fill="#10b981" opacity="0.9"/>
  <circle cx="16" cy="24" r="2.5" fill="#f59e0b"/>
  
  <!-- Neural connections -->
  <line x1="8" y1="10" x2="16" y2="8" stroke="#1e40af" stroke-width="1.5" opacity="0.7"/>
  <line x1="16" y1="8" x2="24" y2="10" stroke="#1e40af" stroke-width="1.5" opacity="0.7"/>
  <line x1="8" y1="10" x2="10" y2="20" stroke="#1e40af" stroke-width="1.5" opacity="0.7"/>
  <line x1="24" y1="10" x2="22" y2="20" stroke="#1e40af" stroke-width="1.5" opacity="0.7"/>
  <line x1="10" y1="20" x2="16" y2="24" stroke="#1e40af" stroke-width="1.5" opacity="0.7"/>
  <line x1="22" y1="20" x2="16" y2="24" stroke="#1e40af" stroke-width="1.5" opacity="0.7"/>
  <line x1="16" y1="8" x2="10" y2="20" stroke="#1e40af" stroke-width="1" opacity="0.5"/>
  <line x1="16" y1="8" x2="22" y2="20" stroke="#1e40af" stroke-width="1" opacity="0.5"/>
  
  <!-- Central "A" for Aithenos -->
  <text x="16" y="18" font-family="Arial, sans-serif" font-size="10" font-weight="bold" fill="white" text-anchor="middle">A</text>
  
  <defs>
    <linearGradient id="gradient" x1="0%" y1="0%" x2="100%" y2="100%">
      <stop offset="0%" style="stop-color:#3b82f6;stop-opacity:1" />
      <stop offset="100%" style="stop-color:#1e40af;stop-opacity:1" />
    </linearGradient>
  </defs>
</svg>