<svg width="120" height="40" viewBox="0 0 120 40" fill="none" xmlns="http://www.w3.org/2000/svg">
  <!-- Main circle background -->
  <circle cx="20" cy="20" r="18" fill="url(#mainGradient)" stroke="#1e3a8a" stroke-width="2"/>
  
  <!-- Neural network pattern -->
  <circle cx="12" cy="12" r="2.5" fill="#fbbf24" opacity="0.9"/>
  <circle cx="20" cy="8" r="2.5" fill="#fbbf24" opacity="0.9"/>
  <circle cx="28" cy="12" r="2.5" fill="#fbbf24" opacity="0.9"/>
  <circle cx="13" cy="25" r="2.5" fill="#10b981" opacity="0.9"/>
  <circle cx="27" cy="25" r="2.5" fill="#10b981" opacity="0.9"/>
  <circle cx="20" cy="30" r="3" fill="#f59e0b"/>
  
  <!-- Neural connections -->
  <line x1="12" y1="12" x2="20" y2="8" stroke="#1e40af" stroke-width="2" opacity="0.8"/>
  <line x1="20" y1="8" x2="28" y2="12" stroke="#1e40af" stroke-width="2" opacity="0.8"/>
  <line x1="12" y1="12" x2="13" y2="25" stroke="#1e40af" stroke-width="2" opacity="0.8"/>
  <line x1="28" y1="12" x2="27" y2="25" stroke="#1e40af" stroke-width="2" opacity="0.8"/>
  <line x1="13" y1="25" x2="20" y2="30" stroke="#1e40af" stroke-width="2" opacity="0.8"/>
  <line x1="27" y1="25" x2="20" y2="30" stroke="#1e40af" stroke-width="2" opacity="0.8"/>
  <line x1="20" y1="8" x2="13" y2="25" stroke="#1e40af" stroke-width="1.5" opacity="0.6"/>
  <line x1="20" y1="8" x2="27" y2="25" stroke="#1e40af" stroke-width="1.5" opacity="0.6"/>
  
  <!-- Central "A" -->
  <text x="20" y="22" font-family="Arial, sans-serif" font-size="12" font-weight="bold" fill="white" text-anchor="middle">A</text>
  
  <!-- Brand text -->
  <text x="45" y="16" font-family="Arial, sans-serif" font-size="16" font-weight="bold" fill="#1e3a8a">Aithenos</text>
  <text x="45" y="28" font-family="Arial, sans-serif" font-size="8" fill="#6b7280">AI Learning Platform</text>
  
  <defs>
    <linearGradient id="mainGradient" x1="0%" y1="0%" x2="100%" y2="100%">
      <stop offset="0%" style="stop-color:#3b82f6;stop-opacity:1" />
      <stop offset="50%" style="stop-color:#1e40af;stop-opacity:1" />
      <stop offset="100%" style="stop-color:#1e3a8a;stop-opacity:1" />
    </linearGradient>
  </defs>
</svg>